HIERARCHY
ROOT root
{
	OFFSET	0	13.1	24.9
	CHANNELS 6  Xposition Yposition Zposition Xrotation Yrotation Zrotation
	JOINT spine_1
	{
		OFFSET	0	9.99999	0
		CHANNELS 3  Xrotation Yrotation Zrotation
		JOINT spine_2
		{
			OFFSET	0	112	-10
			CHANNELS 3  Xrotation Yrotation Zrotation
			JOINT spine_3
			{
				OFFSET	0	206.5	19.3
				CHANNELS 3  Xrotation Yrotation Zrotation
				JOINT spine_4
				{
					OFFSET	0	110.4	14.6
					CHANNELS 3  Xrotation Yrotation Zrotation
					JOINT neck_1
					{
						OFFSET	0	71.8	-50.3
						CHANNELS 3  Xrotation Yrotation Zrotation
						JOINT neck_2
						{
							OFFSET	0	86.2	-25.8
							CHANNELS 3  Xrotation Yrotation Zrotation
							JOINT head_ee
							{
								OFFSET	0	179.8	-8.7
								CHANNELS 3  Xrotation Yrotation Zrotation
								End Site
								{
									OFFSET	1	0	0
								}
							}
						}
					}
					JOINT left_clavicle
					{
						OFFSET	-43.2	22.4	-70.8
						CHANNELS 3  Xrotation Yrotation Zrotation
						JOINT left_shoulder
						{
							OFFSET	-93.9	-5.79999	48.7
							CHANNELS 3  Xrotation Yrotation Zrotation
							JOINT left_elbow
							{
								OFFSET	-291.4	-30.8	15.2
								CHANNELS 3  Xrotation Yrotation Zrotation
								JOINT left_lowarm_twist
								{
									OFFSET	-110.7	-3.89999	13.6
									CHANNELS 3  Xrotation Yrotation Zrotation
									JOINT left_hand
									{
										OFFSET	-110.7	-3.89999	13.6
										CHANNELS 3  Xrotation Yrotation Zrotation
										JOINT left_ee
										{
											OFFSET	-80.8	-5.10001	12.1
											CHANNELS 3  Xrotation Yrotation Zrotation
											End Site
											{
												OFFSET	1	0	0
											}
										}
									}
								}
							}
						}
					}
					JOINT right_clavicle
					{
						OFFSET	43.2	22.4	-70.8
						CHANNELS 3  Xrotation Yrotation Zrotation
						JOINT right_shoulder
						{
							OFFSET	93.9	-5.79999	48.7
							CHANNELS 3  Xrotation Yrotation Zrotation
							JOINT right_elbow
							{
								OFFSET	291.4	-30.8	15.2
								CHANNELS 3  Xrotation Yrotation Zrotation
								JOINT right_lowarm_twist
								{
									OFFSET	110.7	-3.89999	13.6
									CHANNELS 3  Xrotation Yrotation Zrotation
									JOINT right_hand
									{
										OFFSET	110.7	-3.89999	13.6
										CHANNELS 3  Xrotation Yrotation Zrotation
										JOINT right_ee
										{
											OFFSET	80.8	-5.10001	12.1
											CHANNELS 3  Xrotation Yrotation Zrotation
											End Site
											{
												OFFSET	1	0	0
											}
										}
									}
								}
							}
						}
					}
				}
			}
		}
	}
	JOINT left_hip
	{
		OFFSET	-82.8	-127.5	0.300001
		CHANNELS 3  Xrotation Yrotation Zrotation
		JOINT left_knee
		{
			OFFSET	-28.2	-396.7	2.2
			CHANNELS 3  Xrotation Yrotation Zrotation
			JOINT left_ankle
			{
				OFFSET	-11.7	-411.3	35.4
				CHANNELS 3  Xrotation Yrotation Zrotation
				JOINT left_toes
				{
					OFFSET	0	-60	-88.6
					CHANNELS 3  Xrotation Yrotation Zrotation
					JOINT left_foot_ee
					{
						OFFSET	-22.5	-16.5	-42.2
						CHANNELS 3  Xrotation Yrotation Zrotation
						End Site
						{
							OFFSET	1	0	0
						}
					}
				}
			}
		}
	}
	JOINT right_hip
	{
		OFFSET	82.8	-127.5	0.300001
		CHANNELS 3  Xrotation Yrotation Zrotation
		JOINT right_knee
		{
			OFFSET	28.2	-396.7	2.2
			CHANNELS 3  Xrotation Yrotation Zrotation
			JOINT right_ankle
			{
				OFFSET	11.7	-411.3	35.4
				CHANNELS 3  Xrotation Yrotation Zrotation
				JOINT right_toes
				{
					OFFSET	0	-60	-88.6
					CHANNELS 3  Xrotation Yrotation Zrotation
					JOINT right_foot_ee
					{
						OFFSET	22.5	-16.5	-42.2
						CHANNELS 3  Xrotation Yrotation Zrotation
						End Site
						{
							OFFSET	1	0	0
						}
					}
				}
			}
		}
	}
}
MOTION
Frames: 16
Frame Time: 0.02
3177.02 653.055 -1669.29 11.7283166586 11.0867341872 -4.97407550184 -6.55147 0.335252 3.26541 -6.54554 0.1269 3.28011 -6.52582 -0.930033 3.14819 -6.5394 -0.421442 3.25542 7.72092 22.1901 -1.60178 10.4129 38.789 -2.36756 -0.0 0.0 -0.0 6.15287 14.6322 11.7284 -14.1252 -22.283 60.8966 0.511452 -14.2174 0.063784 -36.1542 -2.55176 3.771 0.98515 6.29821 9.1012 -0.0 0.0 -0.0 11.6008 17.1863 -23.1926 8.56868 37.8645 -52.108 2.07948 45.8443 -0.879435 -72.6034 6.87858 -5.31802 -0.0665653 1.90143 1.24978 0.0 0.0 0.0 9.71712 5.51029 -5.2476 -0.0958139 0.00393349 0.0141774 31.3447 26.3179 -4.29597 -2.93373 0.0 0.0 -0.0 0.0 -0.0 -16.6784 2.55578 5.32889 -25.8858 -0.179536 -3.93471 1.04654 6.02874 0.157718 -27.9475 0.0 0.0 0.0 0.0 0.0 
3159.43367446 657.911 -1690.80338509 11.3634284732 10.5628500731 -5.24738232768 -6.53419 0.429971 3.08269 -6.52893 0.233037 3.10378 -6.50469 -0.771681 3.01542 -6.51726 -0.286008 3.09935 6.56273 21.4558 0.0789092 8.62113 36.44 0.11654 -0.0 0.0 -0.0 5.43918 14.7229 10.5454 -12.2752 -20.4545 61.7271 0.607685 -16.7535 0.0894839 -36.9711 -2.63495 3.83474 0.828107 4.9373 7.52727 -0.0 0.0 -0.0 11.4458 18.1227 -22.7884 6.85991 38.0068 -52.1275 1.78006 41.4016 -0.672703 -72.9214 6.91923 -5.3189 0.32856 2.35827 -1.20906 0.0 0.0 0.0 9.3611 5.38047 -4.08636 -1.85673 0.0719849 0.275839 31.1495 26.2781 -4.27255 -2.55324 0.0 0.0 -0.0 0.0 -0.0 -15.2779 5.9409 5.83183 -29.8098 -0.051305 -4.52315 -2.06705 5.59506 -0.313343 -26.164 0.0 0.0 0.0 0.0 0.0 
3135.24386379 655.974 -1724.35372403 11.4110286974 11.0205019057 -5.6043096434 -6.4453 0.573919 2.85573 -6.44085 0.391117 2.88642 -6.41056 -0.547414 2.86092 -6.42197 -0.088915 2.91142 5.28771 20.2349 2.52309 6.65761 32.604 3.41408 -0.0 0.0 -0.0 5.11146 14.9656 10.0032 -11.0015 -20.1543 61.8603 0.719007 -19.6046 0.124226 -37.8576 -2.72626 3.90258 0.784666 3.85818 6.80966 -0.0 0.0 -0.0 11.1352 18.5805 -22.0555 4.73783 37.1574 -52.3925 1.51834 36.9459 -0.507261 -72.6308 6.88209 -5.31811 0.63674 2.7436 -3.11913 0.0 0.0 0.0 8.38884 5.00209 -3.14575 -2.74068 0.103102 0.407929 31.1941 26.6938 -4.28917 -2.31073 0.0 0.0 -0.0 0.0 -0.0 -13.1664 10.789 6.16486 -37.0212 0.288216 -5.57674 -1.65489 4.55122 -0.249525 -23.8835 0.0 0.0 0.0 0.0 0.0 
3135.04717945 655.974 -1724.20394719 11.4190015945 11.2213837628 -5.64564549054 -6.4453 0.573919 2.85573 -6.44085 0.391117 2.88642 -6.41056 -0.547414 2.86092 -6.42197 -0.088915 2.91142 5.28771 20.2349 2.52309 6.65761 32.604 3.41408 -0.0 0.0 -0.0 5.11146 14.9656 10.0032 -11.0015 -20.1543 61.8603 0.719007 -19.6046 0.124226 -37.8576 -2.72626 3.90258 0.784666 3.85818 6.80966 -0.0 0.0 -0.0 11.1352 18.5805 -22.0555 4.73783 37.1574 -52.3925 1.51834 36.9459 -0.507261 -72.6308 6.88209 -5.31811 0.63674 2.7436 -3.11913 0.0 0.0 0.0 8.38884 5.00209 -3.14575 -2.74068 0.103102 0.407929 31.1941 26.6938 -4.28917 -2.31073 0.0 0.0 -0.0 0.0 -0.0 -13.1664 10.789 6.16486 -37.0212 0.288216 -5.57674 -1.65489 4.55122 -0.249525 -23.8835 0.0 0.0 0.0 0.0 0.0 
3134.68749681 655.974 -1723.92715252 11.4340384305 11.5901571035 -5.72168237958 -6.4453 0.573919 2.85573 -6.44085 0.391117 2.88642 -6.41056 -0.547414 2.86092 -6.42197 -0.088915 2.91142 5.28771 20.2349 2.52309 6.65761 32.604 3.41408 -0.0 0.0 -0.0 5.11146 14.9656 10.0032 -11.0015 -20.1543 61.8603 0.719007 -19.6046 0.124226 -37.8576 -2.72626 3.90258 0.784666 3.85818 6.80966 -0.0 0.0 -0.0 11.1352 18.5805 -22.0555 4.73783 37.1574 -52.3925 1.51834 36.9459 -0.507261 -72.6308 6.88209 -5.31811 0.63674 2.7436 -3.11913 0.0 0.0 0.0 8.38884 5.00209 -3.14575 -2.74068 0.103102 0.407929 31.1941 26.6938 -4.28917 -2.31073 0.0 0.0 -0.0 0.0 -0.0 -13.1664 10.789 6.16486 -37.0212 0.288216 -5.57674 -1.65489 4.55122 -0.249525 -23.8835 0.0 0.0 0.0 0.0 0.0 
3135.00313238 655.974 -1724.17025234 11.4208111482 11.2664452997 -5.65492591183 -6.4453 0.573919 2.85573 -6.44085 0.391117 2.88642 -6.41056 -0.547414 2.86092 -6.42197 -0.088915 2.91142 5.28771 20.2349 2.52309 6.65761 32.604 3.41408 -0.0 0.0 -0.0 5.11146 14.9656 10.0032 -11.0015 -20.1543 61.8603 0.719007 -19.6046 0.124226 -37.8576 -2.72626 3.90258 0.784666 3.85818 6.80966 -0.0 0.0 -0.0 11.1352 18.5805 -22.0555 4.73783 37.1574 -52.3925 1.51834 36.9459 -0.507261 -72.6308 6.88209 -5.31811 0.63674 2.7436 -3.11913 0.0 0.0 0.0 8.38884 5.00209 -3.14575 -2.74068 0.103102 0.407929 31.1941 26.6938 -4.28917 -2.31073 0.0 0.0 -0.0 0.0 -0.0 -13.1664 10.789 6.16486 -37.0212 0.288216 -5.57674 -1.65489 4.55122 -0.249525 -23.8835 0.0 0.0 0.0 0.0 0.0 
3135.46413217 655.974 -1724.52014675 11.4023061178 10.7961711125 -5.55821663968 -6.4453 0.573919 2.85573 -6.44085 0.391117 2.88642 -6.41056 -0.547414 2.86092 -6.42197 -0.088915 2.91142 5.28771 20.2349 2.52309 6.65761 32.604 3.41408 -0.0 0.0 -0.0 5.11146 14.9656 10.0032 -11.0015 -20.1543 61.8603 0.719007 -19.6046 0.124226 -37.8576 -2.72626 3.90258 0.784666 3.85818 6.80966 -0.0 0.0 -0.0 11.1352 18.5805 -22.0555 4.73783 37.1574 -52.3925 1.51834 36.9459 -0.507261 -72.6308 6.88209 -5.31811 0.63674 2.7436 -3.11913 0.0 0.0 0.0 8.38884 5.00209 -3.14575 -2.74068 0.103102 0.407929 31.1941 26.6938 -4.28917 -2.31073 0.0 0.0 -0.0 0.0 -0.0 -13.1664 10.789 6.16486 -37.0212 0.288216 -5.57674 -1.65489 4.55122 -0.249525 -23.8835 0.0 0.0 0.0 0.0 0.0 
3135.80595551 655.974 -1724.77569002 11.3891953198 10.4493576158 -5.48709478102 -6.4453 0.573919 2.85573 -6.44085 0.391117 2.88642 -6.41056 -0.547414 2.86092 -6.42197 -0.088915 2.91142 5.28771 20.2349 2.52309 6.65761 32.604 3.41408 -0.0 0.0 -0.0 5.11146 14.9656 10.0032 -11.0015 -20.1543 61.8603 0.719007 -19.6046 0.124226 -37.8576 -2.72626 3.90258 0.784666 3.85818 6.80966 -0.0 0.0 -0.0 11.1352 18.5805 -22.0555 4.73783 37.1574 -52.3925 1.51834 36.9459 -0.507261 -72.6308 6.88209 -5.31811 0.63674 2.7436 -3.11913 0.0 0.0 0.0 8.38884 5.00209 -3.14575 -2.74068 0.103102 0.407929 31.1941 26.6938 -4.28917 -2.31073 0.0 0.0 -0.0 0.0 -0.0 -13.1664 10.789 6.16486 -37.0212 0.288216 -5.57674 -1.65489 4.55122 -0.249525 -23.8835 0.0 0.0 0.0 0.0 0.0 
3135.82855375 655.974 -1724.79246857 11.3883465797 10.4264850938 -5.48241001174 -6.4453 0.573919 2.85573 -6.44085 0.391117 2.88642 -6.41056 -0.547414 2.86092 -6.42197 -0.088915 2.91142 5.28771 20.2349 2.52309 6.65761 32.604 3.41408 -0.0 0.0 -0.0 5.11146 14.9656 10.0032 -11.0015 -20.1543 61.8603 0.719007 -19.6046 0.124226 -37.8576 -2.72626 3.90258 0.784666 3.85818 6.80966 -0.0 0.0 -0.0 11.1352 18.5805 -22.0555 4.73783 37.1574 -52.3925 1.51834 36.9459 -0.507261 -72.6308 6.88209 -5.31811 0.63674 2.7436 -3.11913 0.0 0.0 0.0 8.38884 5.00209 -3.14575 -2.74068 0.103102 0.407929 31.1941 26.6938 -4.28917 -2.31073 0.0 0.0 -0.0 0.0 -0.0 -13.1664 10.789 6.16486 -37.0212 0.288216 -5.57674 -1.65489 4.55122 -0.249525 -23.8835 0.0 0.0 0.0 0.0 0.0 
3135.79692882 655.974 -1724.76898398 11.3895349631 10.4584957753 -5.48896666325 -6.4453 0.573919 2.85573 -6.44085 0.391117 2.88642 -6.41056 -0.547414 2.86092 -6.42197 -0.088915 2.91142 5.28771 20.2349 2.52309 6.65761 32.604 3.41408 -0.0 0.0 -0.0 5.11146 14.9656 10.0032 -11.0015 -20.1543 61.8603 0.719007 -19.6046 0.124226 -37.8576 -2.72626 3.90258 0.784666 3.85818 6.80966 -0.0 0.0 -0.0 11.1352 18.5805 -22.0555 4.73783 37.1574 -52.3925 1.51834 36.9459 -0.507261 -72.6308 6.88209 -5.31811 0.63674 2.7436 -3.11913 0.0 0.0 0.0 8.38884 5.00209 -3.14575 -2.74068 0.103102 0.407929 31.1941 26.6938 -4.28917 -2.31073 0.0 0.0 -0.0 0.0 -0.0 -13.1664 10.789 6.16486 -37.0212 0.288216 -5.57674 -1.65489 4.55122 -0.249525 -23.8835 0.0 0.0 0.0 0.0 0.0 
3095.8133952 668.057 -1765.41109061 12.6622125411 12.5230860206 -6.56009354495 -6.3103 0.827028 2.06139 -6.3082 0.694211 2.10981 -6.27623 -0.00740806 2.22103 -6.28295 0.343369 2.19435 7.78408 18.6304 6.32669 8.65007 25.624 7.6994 -0.0 0.0 -0.0 4.82741 14.7161 9.54084 -7.45378 -20.3653 62.8648 0.99963 -26.3435 0.233947 -39.6694 -2.91607 4.03681 1.00766 2.48159 7.74704 -0.0 0.0 -0.0 10.5623 20.059 -20.6617 -1.46321 34.7663 -52.0873 1.16622 30.0144 -0.312655 -70.6972 6.63504 -5.30797 0.996271 2.83336 -5.5046 0.0 0.0 0.0 5.39503 3.22414 1.17636 -2.07738 0.079943 0.308766 31.8858 27.6068 -4.39508 -2.02951 0.0 0.0 -0.0 0.0 -0.0 -3.36553 26.1918 0.0542509 -59.8768 2.1867 -8.51187 4.24765 -0.80337 0.619962 -17.7252 0.0 0.0 0.0 0.0 0.0 
3048.32683377 673.979 -1797.0208733 12.0361450635 15.6108449778 -6.26750483553 -6.23052 0.648044 1.60323 -6.22925 0.544727 1.6412 -6.2098 0.000655805 1.72922 -6.21387 0.273705 1.70743 8.45858 18.574 6.23627 9.33041 25.3799 7.55058 -0.0 0.0 -0.0 5.13622 14.2319 10.054 -5.31321 -21.0388 62.0828 1.19859 -30.6983 0.329012 -39.8936 -2.93985 4.05301 1.00028 2.00796 7.5078 -0.0 0.0 -0.0 10.1239 19.2716 -19.7318 -8.16858 31.9801 -50.8208 1.11307 28.8708 -0.28653 -70.1229 6.56171 -5.30334 1.04258 2.86655 -5.80358 0.0 0.0 0.0 2.9074 3.40385 2.76081 -1.19942 0.0475253 0.177929 32.9673 27.816 -4.52433 -1.84283 0.0 0.0 -0.0 0.0 -0.0 2.7333 29.6782 -3.09388 -64.029 2.65039 -8.95385 4.37701 -0.655162 0.638815 -17.492 0.0 0.0 0.0 0.0 0.0 
3042.18245954 673.979 -1790.51683165 12.2177124044 18.3753652061 -6.8885784635 -6.23052 0.648044 1.60323 -6.22925 0.544727 1.6412 -6.2098 0.000655805 1.72922 -6.21387 0.273705 1.70743 8.45858 18.574 6.23627 9.33041 25.3799 7.55058 -0.0 0.0 -0.0 5.13622 14.2319 10.054 -5.31321 -21.0388 62.0828 1.19859 -30.6983 0.329012 -39.8936 -2.93985 4.05301 1.00028 2.00796 7.5078 -0.0 0.0 -0.0 10.1239 19.2716 -19.7318 -8.16858 31.9801 -50.8208 1.11307 28.8708 -0.28653 -70.1229 6.56171 -5.30334 1.04258 2.86655 -5.80358 0.0 0.0 0.0 2.9074 3.40385 2.76081 -1.19942 0.0475253 0.177929 32.9673 27.816 -4.52433 -1.84283 0.0 0.0 -0.0 0.0 -0.0 2.7333 29.6782 -3.09388 -64.029 2.65039 -8.95385 4.37701 -0.655162 0.638815 -17.492 0.0 0.0 0.0 0.0 0.0 
3019.19506761 675.129 -1796.45687114 11.5469746562 20.7836546097 -6.55072537022 -5.88464 0.52202 1.25941 -5.88386 0.440829 1.29007 -5.87164 0.0205436 1.36314 -5.87416 0.235549 1.3428 8.48419 18.6065 6.27832 9.35715 25.3875 7.59939 -0.0 0.0 -0.0 5.27115 13.9368 10.282 -3.92969 -21.4981 61.65 1.29786 -32.7363 0.381212 -39.7575 -2.92541 4.04319 0.997295 1.82584 7.41467 -0.0 0.0 -0.0 9.88577 18.7723 -19.2326 -9.75284 31.1794 -50.6731 1.08956 28.3565 -0.275268 -70.1436 6.56435 -5.30352 1.07559 2.86671 -6.02656 0.0 0.0 0.0 2.02867 3.93782 3.00784 -1.25027 0.0494573 0.185493 33.3453 27.4376 -4.55476 -1.72583 0.0 0.0 -0.0 0.0 -0.0 6.08662 30.1422 -3.96076 -65.7399 2.85062 -9.12608 4.64474 -0.336643 0.677859 -17.3352 0.0 0.0 0.0 0.0 0.0 
2961.35137427 699.791 -1827.33044051 11.0506769004 21.8696601003 -4.88879247229 -5.82485 0.243785 0.702163 -5.8246 0.198611 0.716252 -5.82144 -0.0318447 0.742595 -5.8222 0.0858307 0.738305 8.40603 18.647 6.49564 9.26686 25.283 7.86741 -0.0 0.0 -0.0 5.75776 13.752 11.0984 -0.377427 -22.1874 59.9901 1.74521 -40.8407 0.649789 -39.0731 -2.85313 3.99329 0.982445 1.19997 7.06284 -0.0 0.0 -0.0 9.25756 16.9008 -17.9511 -15.0061 28.2826 -50.1792 0.972622 25.7247 -0.222093 -70.2841 6.58228 -5.30472 1.20879 2.84286 -6.9374 0.0 0.0 0.0 -1.02228 6.78936 4.00598 -1.64637 0.0642793 0.244475 34.7567 25.2535 -4.64326 -1.36929 0.0 0.0 -0.0 0.0 -0.0 19.3364 28.4214 -8.44893 -70.6132 3.44816 -9.58326 6.14846 1.68913 0.898058 -16.7463 0.0 0.0 0.0 0.0 0.0 
2959.26507547 699.791 -1824.44324619 11.1106787901 22.6187557441 -5.04729141336 -5.82485 0.243785 0.702163 -5.8246 0.198611 0.716252 -5.82144 -0.0318447 0.742595 -5.8222 0.0858307 0.738305 8.40603 18.647 6.49564 9.26686 25.283 7.86741 -0.0 0.0 -0.0 5.75776 13.752 11.0984 -0.377427 -22.1874 59.9901 1.74521 -40.8407 0.649789 -39.0731 -2.85313 3.99329 0.982445 1.19997 7.06284 -0.0 0.0 -0.0 9.25756 16.9008 -17.9511 -15.0061 28.2826 -50.1792 0.972622 25.7247 -0.222093 -70.2841 6.58228 -5.30472 1.20879 2.84286 -6.9374 0.0 0.0 0.0 -1.02228 6.78936 4.00598 -1.64637 0.0642793 0.244475 34.7567 25.2535 -4.64326 -1.36929 0.0 0.0 -0.0 0.0 -0.0 19.3364 28.4214 -8.44893 -70.6132 3.44816 -9.58326 6.14846 1.68913 0.898058 -16.7463 0.0 0.0 0.0 0.0 0.0 
